<svg xmlns="http://www.w3.org/2000/svg" xml:space="preserve" viewBox="0 0 512 512">
  <circle cx="256" cy="256" r="256" fill="#273b7a"/>
  <g fill="#121149">
    <path d="m369.778 145.954-28.634 31.992-76.738-77.991-2.61 39.986-14.217 14.65 58.652 58.651-112.011 75.283-37.104-37.105-57.486 12.624 70.944 70.944-27.331 33.77 141.614 141.614c117.817-13.219 211.435-106.389 225.342-223.997L369.778 145.954z"/>
    <path d="m164.983 182.05 75.014 75.014 3.936 6.981 22.898-14.279-91.744-91.744"/>
  </g>
  <circle cx="256" cy="256" r="78.041" fill="#ffc61b"/>
  <path fill="#eaa22f" d="M403.394 268.067h-37.348c-6.665 0-12.067-5.403-12.067-12.067 0-6.665 5.403-12.067 12.067-12.067h37.348c6.665 0 12.067 5.403 12.067 12.067 0 6.665-5.402 12.067-12.067 12.067z"/>
  <path fill="#ffc61b" d="M145.954 268.067h-37.348c-6.665 0-12.067-5.403-12.067-12.067 0-6.665 5.403-12.067 12.067-12.067h37.348c6.665 0 12.067 5.403 12.067 12.067.001 6.665-5.402 12.067-12.067 12.067zM256 415.461c-6.665 0-12.067-5.403-12.067-12.067v-37.348c0-6.665 5.403-12.067 12.067-12.067 6.665 0 12.067 5.403 12.067 12.067v37.348c0 6.665-5.402 12.067-12.067 12.067zm0-257.439c-6.665 0-12.067-5.403-12.067-12.067v-37.348c0-6.665 5.403-12.067 12.067-12.067 6.665 0 12.067 5.403 12.067 12.067v37.348c0 6.664-5.402 12.067-12.067 12.067z"/>
  <path fill="#eaa22f" d="M334.033 256c0-42.999-34.782-77.869-77.745-78.024v156.05c42.963-.157 77.745-35.027 77.745-78.026zm-77.745 97.992v61.454c6.53-.155 11.779-5.485 11.779-12.054v-37.348c0-6.567-5.249-11.897-11.779-12.052zm0-257.439v61.454c6.53-.155 11.779-5.485 11.779-12.054v-37.347c0-6.568-5.249-11.898-11.779-12.053zm103.936 275.738a12.03 12.03 0 0 1-8.532-3.534l-26.41-26.409c-4.713-4.711-4.713-12.354-.002-17.065 4.713-4.713 12.355-4.711 17.065-.002l26.41 26.409c4.713 4.711 4.713 12.354.002 17.065a12.03 12.03 0 0 1-8.533 3.536z"/>
  <path fill="#ffc61b" d="M178.186 190.255a12.027 12.027 0 0 1-8.533-3.536l-26.409-26.41c-4.711-4.711-4.711-12.354.002-17.065 4.713-4.71 12.355-4.708 17.065.002l26.409 26.41c4.711 4.711 4.711 12.354-.002 17.065a12.022 12.022 0 0 1-8.532 3.534zm-26.41 182.036a12.035 12.035 0 0 1-8.533-3.534c-4.711-4.713-4.711-12.354 0-17.067l26.41-26.41c4.713-4.71 12.354-4.71 17.067 0 4.711 4.713 4.711 12.353 0 17.067l-26.41 26.41a12.039 12.039 0 0 1-8.534 3.534z"/>
  <path fill="#eaa22f" d="M333.814 190.254a12.035 12.035 0 0 1-8.533-3.534c-4.711-4.713-4.711-12.354 0-17.067l26.41-26.41c4.713-4.71 12.353-4.71 17.067 0 4.711 4.713 4.711 12.354 0 17.067l-26.41 26.41a12.038 12.038 0 0 1-8.534 3.534z"/>
</svg>