<svg xmlns="http://www.w3.org/2000/svg" fill="none" viewBox="0 0 27 23">
  <path fill="#000" d="M22.613 11.97H.554A.54.54 0 0 1 0 11.444a.54.54 0 0 1 .554-.525h21.952a.59.59 0 0 1 .107-.01c1.808 0 3.279-1.395 3.279-3.11 0-1.714-1.471-3.109-3.279-3.109-1.808 0-3.279 1.395-3.279 3.11a.54.54 0 0 1-.554.525.54.54 0 0 1-.554-.525c0-2.294 1.968-4.16 4.387-4.16C25.032 3.64 27 5.505 27 7.8c0 2.257-1.906 4.1-4.273 4.158a.583.583 0 0 1-.114.012Z"/>
  <path fill="#000" d="M11.251 8.33H.554A.54.54 0 0 1 0 7.805a.54.54 0 0 1 .554-.526h10.59a.584.584 0 0 1 .107-.01c1.808 0 3.279-1.394 3.279-3.109 0-1.714-1.471-3.11-3.279-3.11-1.808 0-3.279 1.396-3.279 3.11a.54.54 0 0 1-.554.526.54.54 0 0 1-.554-.526C6.864 1.866 8.832 0 11.25 0c2.419 0 4.387 1.866 4.387 4.16 0 2.258-1.906 4.101-4.273 4.159a.59.59 0 0 1-.114.011ZM18.041 23c-2.419 0-4.387-1.866-4.387-4.16a.54.54 0 0 1 .554-.526.54.54 0 0 1 .554.526c0 1.714 1.471 3.11 3.279 3.11 1.808 0 3.279-1.396 3.279-3.11 0-1.715-1.471-3.11-3.279-3.11H.554A.54.54 0 0 1 0 15.206a.54.54 0 0 1 .554-.525h17.487c2.419 0 4.387 1.866 4.387 4.16S20.46 23 18.041 23Z"/>
</svg>