<svg xmlns="http://www.w3.org/2000/svg" fill="none" viewBox="0 0 320 320">
  <path fill="#FFC61B" d="M160 238.041c43.101 0 78.041-34.94 78.041-78.041S203.101 81.959 160 81.959 81.959 116.899 81.959 160s34.94 78.041 78.041 78.041ZM49.954 172.067H12.606C5.941 172.067.539 166.664.539 160c0-6.665 5.403-12.067 12.067-12.067h37.348c6.665 0 12.067 5.403 12.067 12.067.001 6.665-5.402 12.067-12.067 12.067ZM160 319.461c-6.665 0-12.067-5.403-12.067-12.067v-37.348c0-6.665 5.403-12.067 12.067-12.067 6.665 0 12.067 5.403 12.067 12.067v37.348c0 6.665-5.402 12.067-12.067 12.067Zm0-257.439c-6.665 0-12.067-5.403-12.067-12.067V12.607C147.933 5.942 153.336.54 160 .54c6.665 0 12.067 5.403 12.067 12.067v37.348c0 6.664-5.402 12.067-12.067 12.067Zm110.113 86.372h37.348c6.665 0 12.067 5.403 12.067 12.067 0 6.665-5.403 12.067-12.067 12.067h-37.348c-6.665 0-12.067-5.403-12.067-12.067-.001-6.665 5.402-12.067 12.067-12.067ZM73.165 90.23 46.756 63.82c-4.713-4.712-4.712-12.353 0-17.065 4.713-4.713 12.353-4.712 17.065 0l26.41 26.41c4.712 4.712 4.712 12.352 0 17.065-4.713 4.713-12.353 4.712-17.066 0ZM46.756 272.267c-4.713-4.713-4.712-12.353 0-17.065l26.409-26.409c4.713-4.713 12.353-4.712 17.065 0 4.713 4.713 4.712 12.353 0 17.065l-26.409 26.409c-4.713 4.713-12.352 4.713-17.065 0ZM228.793 90.23c-4.713-4.713-4.712-12.353 0-17.065l26.409-26.409c4.713-4.713 12.353-4.712 17.065 0 4.713 4.713 4.712 12.353 0 17.065l-26.409 26.41c-4.712 4.711-12.352 4.712-17.065 0Zm18.842 138.34 26.409 26.409c4.713 4.713 4.712 12.353 0 17.066-4.713 4.712-12.353 4.712-17.065 0l-26.409-26.409c-4.713-4.713-4.713-12.354 0-17.066 4.712-4.713 12.352-4.713 17.065 0Z"/>
</svg>